<?xml version="1.0" encoding="utf-8"?>
<!-- Generator: Adobe Illustrator 15.1.0, SVG Export Plug-In . SVG Version: 6.00 Build 0)  -->
<!DOCTYPE svg PUBLIC "-//W3C//DTD SVG 1.1//EN" "http://www.w3.org/Graphics/SVG/1.1/DTD/svg11.dtd">
<svg version="1.1" id="Layer_1" xmlns="http://www.w3.org/2000/svg" xmlns:xlink="http://www.w3.org/1999/xlink" x="0px" y="0px"
	 width="350px" height="500px" viewBox="0 0 350 500" enable-background="new 0 0 350 500" xml:space="preserve">
<g id="Layer_1_1_">
	<g>
		<g>
			<path fill="#F5F5F5" d="M100.802,137.395h1.692v7.249h0.057c0.422-1.523,1.889-2.426,3.667-2.426
				c2.285,0,3.836,1.184,3.836,4.005v11.311h-1.692v-10.831c0-2.059-0.846-3.074-2.566-3.074c-1.975,0-3.301,1.522-3.301,3.836
				v10.069h-1.692v-20.139H100.802z"/>
			<path fill="#F5F5F5" d="M119.811,142.218c3.301,0,5.162,2.623,5.162,7.813c0,5.218-1.861,7.842-5.162,7.842
				c-3.3,0-5.162-2.624-5.162-7.842C114.649,144.841,116.511,142.218,119.811,142.218z M119.811,156.462
				c1.89,0,3.357-1.636,3.357-6.432c0-4.767-1.467-6.402-3.357-6.402c-1.889,0-3.356,1.636-3.356,6.402
				C116.455,154.827,117.922,156.462,119.811,156.462z"/>
			<path fill="#F5F5F5" d="M128.216,142.556h1.805l2.539,13.285h0.057l2.708-13.285h2.087l2.54,13.285h0.056l2.539-13.285h1.805
				l-3.328,14.978h-2.003l-2.708-13.284h-0.057l-2.708,13.284h-2.002L128.216,142.556z"/>
			<path fill="#F5F5F5" d="M165.163,155.051h-0.056c-0.451,1.721-1.89,2.821-3.667,2.821c-3.3,0-4.795-2.651-4.795-7.842
				c0-5.162,1.495-7.813,4.795-7.813c1.861,0,3.131,1.016,3.498,2.595h0.056v-7.418h1.692v20.139h-1.523V155.051z M161.722,156.462
				c1.72,0,3.271-0.875,3.271-6.432c0-5.528-1.551-6.402-3.271-6.402c-1.693,0-3.272,0.874-3.272,6.402
				C158.45,155.587,160.029,156.462,161.722,156.462z"/>
			<path fill="#F5F5F5" d="M176.273,142.218c3.301,0,5.162,2.623,5.162,7.813c0,5.218-1.861,7.842-5.162,7.842
				c-3.299,0-5.162-2.624-5.162-7.842C171.113,144.841,172.975,142.218,176.273,142.218z M176.273,156.462
				c1.891,0,3.357-1.636,3.357-6.432c0-4.767-1.467-6.402-3.357-6.402c-1.89,0-3.355,1.636-3.355,6.402
				C172.918,154.827,174.385,156.462,176.273,156.462z"/>
			<path fill="#F5F5F5" d="M195.256,152.57c-0.253,3.188-2.002,5.303-4.824,5.303c-3.158,0-5.02-2.2-5.02-7.842
				c0-5.189,1.861-7.813,5.162-7.813c3.328,0,4.824,2.284,4.824,7.277v0.621h-8.181v0.704c0,4.316,1.522,5.642,3.187,5.642
				c1.777,0,2.878-1.271,3.16-3.893L195.256,152.57L195.256,152.57z M193.592,148.706c-0.056-3.723-1.1-5.077-3.188-5.077
				s-3.131,1.354-3.188,5.077H193.592z"/>
			<path fill="#F5F5F5" d="M202.532,150.087c-2.116-0.817-2.878-2.06-2.878-3.554c0-3.074,1.919-4.315,4.457-4.315
				c2.822,0,4.119,1.439,4.119,4.175v0.422h-1.692v-0.422c0-1.946-0.903-2.765-2.454-2.765c-1.975,0-2.736,1.043-2.736,2.539
				c0,1.042,0.34,1.86,2.031,2.51l2.454,0.931c2.031,0.762,2.793,2.172,2.793,3.809c0,2.565-1.466,4.456-4.626,4.456
				c-3.074,0-4.598-1.27-4.598-4.653v-0.48h1.691v0.396c0,2.2,0.959,3.328,2.877,3.328c1.805,0,2.963-1.017,2.963-2.68
				c0-1.325-0.537-2.172-2.031-2.765L202.532,150.087z"/>
			<path fill="#F5F5F5" d="M220.693,142.556h1.806l3.356,12.976h0.057l3.02-12.976h1.805l-4.373,16.19
				c-0.789,2.934-1.691,3.752-3.977,3.752c-0.451,0-0.789-0.028-1.128-0.057v-1.409c0.366,0.026,0.733,0.055,1.101,0.055
				c1.043,0,1.748-0.423,2.229-2.001l0.424-1.411L220.693,142.556z"/>
			<path fill="#F5F5F5" d="M239.055,142.218c3.301,0,5.162,2.623,5.162,7.813c0,5.218-1.861,7.842-5.162,7.842
				c-3.3,0-5.16-2.624-5.16-7.842C233.895,144.841,235.754,142.218,239.055,142.218z M239.055,156.462
				c1.891,0,3.356-1.636,3.356-6.432c0-4.767-1.468-6.402-3.356-6.402s-3.355,1.636-3.355,6.402
				C235.698,154.827,237.165,156.462,239.055,156.462z"/>
			<path fill="#F5F5F5" d="M248.813,142.556h1.692v10.549c0,2.427,0.818,3.357,2.595,3.357c1.918,0,3.272-1.523,3.272-3.836v-10.07
				h1.692v14.978h-1.522v-2.088h-0.056c-0.848,1.665-2.313,2.427-3.838,2.427c-2.283,0-3.836-1.185-3.836-4.006V142.556
				L248.813,142.556z"/>
			<path fill="#F5F5F5" d="M263.451,142.556h1.691v2.341h0.058c0.647-1.663,2.03-2.679,3.778-2.679c0.197,0,0.396,0.028,0.592,0.085
				v1.692c-0.281-0.058-0.563-0.085-0.817-0.085c-1.86,0-3.61,1.354-3.61,4.26v9.363h-1.691V142.556L263.451,142.556z"/>
		</g>
		<g>
			<path fill="#FF2E00" d="M330.175,183.457l-18.321-0.474c-0.472-0.012-0.922-0.03-1.365-0.05
				c-0.638-0.082-1.275-0.116-1.901-0.101c-8.067-0.517-11.86-2.015-12.424-2.256c-1.772-0.979-3.771-1.495-5.794-1.495
				c-3.732,0-7.166,1.686-9.428,4.57c-3.158-3.615-7.851-5.787-13.311-5.707c-0.943-0.188-1.979-0.26-2.898-0.223
				c-7.862,0.303-16.588,4.934-23.207,12.107c-4.063-4.599-9.76-7.079-16.461-7.079c-4.16,0-8.603,1.007-12.844,2.913
				c-2.675,1.2-5.266,2.771-7.66,4.629c-3.078-4.229-8.338-6.214-12.694-6.607c-3.481-0.315-6.847,0.503-10.364,2.459
				c-3.223-2.094-7.309-2.748-11.415-1.78c-4.562,1.073-8.574,3.43-12.045,5.937c-3.507-3.472-8.227-5.346-13.618-5.346
				c-6.313,0-12.3,2.527-16.138,4.594c-0.054-1.95-0.597-3.902-1.629-5.701c-3.599-6.274-9.865-9.73-17.645-9.73
				c-12.389,0-25.449,8.669-27.941,10.406c-4.508,3.144-10.847,8.244-13.837,16.221c-3.829,10.217,1.809,20.59,14.365,26.428
				l0.282,0.13c7.481,3.479,8.674,4.752,8.661,7.059c-0.02,3.471-2.686,7.825-4.948,10.959c-1.48-2.078-3.635-3.68-6.249-4.501
				c-5.614-1.761-14.309-3.859-23.846-3.859c-8.33,0-15.729,1.595-21.992,4.739c-7.609,3.82-12.534,11.295-13.512,20.506
				c-1.06,9.979,2.917,20.172,10.131,25.969c5.196,4.178,11.583,6.297,18.982,6.297c9.723,0,19.179-3.72,25.399-6.839
				c7.333-3.679,13.111-8.838,18.262-13.864c7.188-7.017,12.596-13.871,16.532-20.955c1.393-2.507,2.519-5.03,3.367-7.542
				c2.371,0.969,4.964,1.458,7.751,1.458c3.863,0,8.118-1.002,12.304-2.897c8.765-3.972,17.02-10.714,22.768-18.392
				c0.172,0.564,0.387,1.123,0.644,1.672c2.05,4.381,6.343,7.211,10.938,7.211c3.402,0,6.533-1.508,8.809-4.238
				c0.261-0.311,0.519-0.627,0.771-0.945c0.664-0.633,1.304-1.299,1.929-2.008c2.724,3.402,6.872,5.381,11.66,5.381
				c0.825,0,1.665-0.063,2.493-0.187c1.731-0.26,3.498-0.767,5.275-1.511c0.361,0.326,0.732,0.639,1.112,0.938
				c0.487,0.385,0.985,0.742,1.492,1.075c-2.343,0.765-4.746,1.474-7.241,2.208c-8.65,2.55-17.596,5.187-25.718,10.702
				c-7.976,5.417-16.616,16.147-17.94,27.908c-0.856,7.616,1.398,14.551,6.522,20.051c5.431,5.83,13.122,8.912,22.244,8.912
				c12.511,0,24.873-5.773,31.66-10.719c18.147-13.22,21.849-32.755,24.83-50.231c3.547-3.009,6.812-6.445,9.738-10.253
				c3.994,1.418,8.563,1.547,12.756,0.331c5.771-1.676,11.205-5.405,16.566-11.382c3.352,0.295,6.926,0.268,11.115-0.082
				c3.287-0.272,6.48-0.863,9.547-1.765c0.967,4.899,4.861,8.71,9.912,9.502c0.899,0.142,1.82,0.179,2.705,0.113
				c3.198-0.228,6.115-1.685,8.217-4.106c2.101-2.421,3.132-5.516,2.903-8.713c-0.291-4.105,2.452-11.955,3.984-15.241
				L330.175,183.457z M183.333,277.755c-1.406,0.31-2.894,0.474-4.304,0.474c-2.762,0-4.92-0.635-5.568-1.623
				c-0.119-1.121,1.497-5.043,5.076-8.687c3.083-3.138,7.783-5.099,11.535-6.457c3.506-1.269,7.212-2.409,10.836-3.524l0.105-0.031
				c1.971-0.606,3.975-1.225,5.992-1.877c-2.076,5.812-4.658,10.225-7.939,13.631C195.355,273.514,189.915,276.313,183.333,277.755z
				 M95.495,203.919c0.36-0.238,0.686-0.453,0.961-0.641c2.175-1.478,4.971-2.758,8.552-3.916l0.158-0.051
				c0.522-0.17,1.604-0.52,2.56-0.746c1.453,1.449,3.227,2.47,5.179,2.988c-2.999,3.131-5.959,6.859-8.239,11.097
				c-1.484-1.245-3.154-2.438-5.031-3.599c-1.771-1.096-3.734-1.865-5.636-2.611c-0.299-0.117-0.794-0.312-1.351-0.541
				C93.385,205.353,94.318,204.698,95.495,203.919z M68.459,262.882c-4.616,3.278-9.313,5.481-14.226,6.687
				c-1.951,0.477-3.731,0.719-5.288,0.721c-2.311,0-3.221-0.531-3.506-0.762c-1.227-0.985-1.972-4.924-1.202-6.27
				c0.125-0.167,1.46-1.633,9.66-1.904c0.555-0.02,1.111-0.027,1.667-0.027C59.835,261.326,64.157,261.848,68.459,262.882z"/>
			<path d="M324.742,186.818l-12.979-0.336c-0.55-0.014-1.071-0.035-1.59-0.059c-0.548-0.078-1.098-0.109-1.643-0.087
				c-9.516-0.589-13.637-2.483-13.948-2.632c-1.283-0.734-2.737-1.122-4.215-1.122c-2.976,0-5.685,1.513-7.242,4.046
				c-1.19,1.934-1.558,4.215-1.03,6.424c0.525,2.209,1.881,4.08,3.813,5.271c0.272,0.168,0.76,0.446,1.487,0.789
				c-2.035,0.529-4.145,0.845-6.287,0.932c0.324-1.736,0.483-3.46,0.474-5.13c-0.054-7.68-5.907-13.471-13.62-13.471
				c-0.219,0-0.438,0.005-0.658,0.015c-0.777-0.19-1.613-0.271-2.438-0.237c-8.353,0.32-17.634,6.324-23.552,14.354
				c-3.356-6.023-9.082-9.322-16.25-9.322c-3.67,0-7.615,0.9-11.41,2.605c-3.803,1.707-7.319,4.182-10.282,7.141
				c-1.323-5.834-7.142-8.403-11.823-8.827c-3.777-0.344-7.277,1.181-10.304,3.247c-2.584-2.59-6.285-3.605-10.357-2.646
				c-5.075,1.193-9.463,4.237-13.39,7.334c-2.93-4.314-7.475-6.65-13.074-6.65c-7.451,0-14.551,4.064-17.257,5.813
				c-4.063,2.622-16.633,11.564-21.396,24.389c-1.991-2.364-4.629-4.558-7.977-6.626c-1.505-0.931-3.238-1.61-5.073-2.329
				c-1.932-0.758-5.059-1.984-5.867-3.108c0.442-0.858,2.028-2.494,6.7-5.585c0.348-0.229,0.663-0.438,0.936-0.623
				c2.453-1.667,5.541-3.09,9.439-4.35l0.158-0.052c1.213-0.394,3.47-1.124,4.997-1.124c0.032,0,0.063,0,0.091,0
				c1.58,2.29,4.004,3.587,6.758,3.587c3.132,0,6.173-1.757,7.748-4.478c1.516-2.617,1.494-5.672-0.06-8.379
				c-2.991-5.215-8.043-7.973-14.608-7.973c-11.338,0-23.597,8.146-25.94,9.778c-4.125,2.876-9.914,7.516-12.561,14.577
				c-3.138,8.373,1.792,17.018,12.561,22.023l0.284,0.133c7.284,3.385,10.713,5.5,10.686,10.253
				c-0.032,5.417-4.339,11.517-8.087,16.227c-0.551,0.691-1.103,1.367-1.655,2.027c0.139-3.891-2.214-7.288-6.002-8.477
				c-5.38-1.688-13.703-3.699-22.799-3.699c-7.778,0-14.649,1.469-20.421,4.366c-6.523,3.276-10.751,9.745-11.602,17.749
				c-0.937,8.822,2.534,17.8,8.844,22.871c4.558,3.664,10.206,5.521,16.787,5.521c0.001,0,0.001,0,0.001,0
				c9.035,0,17.945-3.516,23.831-6.466c6.905-3.464,12.437-8.411,17.386-13.241c6.942-6.775,12.149-13.365,15.917-20.148
				c2.085-3.754,3.495-7.477,4.236-11.107c0.019,0.015,0.035,0.03,0.054,0.044c2.782,2.109,6.109,3.179,9.888,3.179
				c3.369,0,7.125-0.895,10.859-2.587c10.342-4.685,20.032-13.611,25.064-22.999c2.323-1.4,4.55-3.036,6.64-4.663
				c-0.765,1.143-1.592,2.252-2.47,3.306c-2.206,2.644-2.669,6.224-1.209,9.343c1.477,3.155,4.526,5.194,7.769,5.194
				c2.345,0,4.522-1.063,6.127-2.987c0.294-0.352,0.582-0.707,0.867-1.067c2.03-1.907,3.655-4.018,5.088-6.19
				c0.072,0.273,0.154,0.549,0.248,0.824c1.576,4.694,5.729,7.61,10.838,7.61c0.652,0,1.316-0.05,1.975-0.148
				c2.118-0.317,4.307-1.081,6.536-2.279c0.771,0.884,1.619,1.695,2.536,2.417c2.873,2.262,6.133,3.434,9.691,3.484
				c-1.715,0.842-3.498,1.609-5.342,2.298c-3.617,1.352-7.336,2.448-11.274,3.608c-8.396,2.476-17.076,5.035-24.74,10.24
				c-7.313,4.967-15.229,14.749-16.429,25.405c-0.739,6.569,1.199,12.542,5.605,17.272c4.752,5.102,11.558,7.797,19.683,7.797
				c11.668,0,23.238-5.412,29.6-10.047c17.053-12.422,20.563-31.066,23.657-49.268c4.427-3.598,8.386-7.86,11.821-12.725
				c3.781,2.074,8.5,2.59,12.932,1.306c5.52-1.603,10.804-5.438,16.102-11.695c3.615,0.463,7.568,0.496,12.268,0.104
				c4.621-0.384,8.994-1.432,13.078-3.128c-0.039,1.076-0.021,2.109,0.047,3.097c0.281,3.974,3.225,7.181,7.162,7.798
				c0.633,0.1,1.271,0.128,1.919,0.08c2.265-0.16,4.332-1.193,5.818-2.908c1.487-1.715,2.22-3.906,2.059-6.172
				c-0.359-5.072,2.746-13.627,4.305-16.971L324.742,186.818z M256.259,208.71c-1.69,1.563-3.051,2.514-3.958,3.01
				c0.104-0.888,0.616-2.508,2.539-5.085C255.264,207.363,255.736,208.056,256.259,208.71z M170.333,278.189
				c-1.499-2.744,1.796-8.739,5.708-12.723c3.575-3.64,8.74-5.811,12.84-7.295c3.6-1.304,7.36-2.46,10.998-3.579
				c4.111-1.265,8.307-2.555,12.467-4.107c-2.09,8.098-5.178,15.81-10.758,21.603c-4.193,4.354-10.245,7.495-17.503,9.086
				c-1.649,0.362-3.397,0.554-5.056,0.554C176.504,281.729,172.014,281.268,170.333,278.189z M211.486,214.476
				c0.074-3.432,6.576-9.91,11.515-11.09c-2.384,3.711-5.078,6.961-8.034,9.684c-1.854,1.709-2.887,2.174-3.294,2.305
				C211.575,215.154,211.48,214.816,211.486,214.476z M121.443,225.947c0.357-1.219,0.986-2.423,1.581-3.475
				c1.521-2.689,3.598-5.302,6.433-8.07c0.995,1.637,2.335,3.068,3.975,4.232c-2.344,2.141-4.936,4.035-7.677,5.602
				C124.287,225.074,122.652,225.712,121.443,225.947z M43.247,272.255c-2.57-2.065-3.673-7.896-2.034-10.757
				c1.883-3.287,9.926-3.555,12.569-3.643c0.593-0.021,1.188-0.029,1.782-0.029c5.926,0,11.938,0.943,17.866,2.803
				c0.954,0.301,1.921,0.438,2.864,0.411c-6.813,6.183-13.831,10.115-21.23,11.929c-2.224,0.543-4.282,0.818-6.118,0.819
				C46.429,273.789,44.511,273.273,43.247,272.255z"/>
			<g>
				<path fill="#F5F5F5" d="M95.095,213.525c-3.712-2.295-11.461-3.49-13.005-8.15c-1.413-4.266,6.662-9.094,9.537-11.047
					c3.21-2.18,6.907-3.721,10.583-4.908c2.479-0.803,8.396-2.795,10.115,0.201c2.622,4.57,9.687,0.455,7.059-4.125
					c-6.833-11.912-25.996-2.371-34.071,3.258c-4.613,3.217-8.905,7.088-10.921,12.465c-2.864,7.641,4.129,13.521,10.244,16.363
					c6.554,3.049,13.62,6.211,13.572,14.492c-0.041,6.943-4.938,13.816-9.066,19.002c-8.738,10.977-19.452,20.527-33.342,23.93
					c-4.878,1.193-11.494,1.811-15.706-1.576c-4.325-3.477-5.862-11.715-3.119-16.502c2.939-5.131,11.157-5.729,16.324-5.902
					c7.118-0.235,14.356,0.849,21.145,2.978c5.044,1.582,7.185-6.311,2.173-7.883c-12.264-3.848-27.998-5.557-39.854,0.395
					c-12.095,6.074-11.944,25.064-1.958,33.092c10.175,8.18,25.328,3.781,35.782-1.459c6.188-3.104,11.34-7.637,16.261-12.439
					c5.8-5.66,11.18-12.01,15.126-19.113c4.099-7.381,5.977-15.805,2.367-23.725C102.501,218.835,98.771,215.796,95.095,213.525z"/>
				<path fill="#F5F5F5" d="M317.422,188.805l-6.105-0.157c-0.669-0.018-1.303-0.046-1.932-0.074
					c-0.395-0.072-0.798-0.095-1.201-0.063c-11.336-0.667-15.916-3.093-16.107-3.198c-1.873-1.116-4.303-0.522-5.45,1.342
					c-1.158,1.881-0.571,4.346,1.31,5.503c0.482,0.297,3.891,2.247,11.67,3.489c-6.904,5.244-16.056,7.483-24.711,6.264
					c1.19-2.996,1.877-6.205,1.856-9.299c-0.041-6.027-4.952-9.535-10.301-8.936c-0.496-0.209-1.078-0.318-1.744-0.291
					c-9.946,0.381-21.459,10.645-24.547,21.232c-0.318,0.318-0.603,0.723-0.825,1.236c-2.518,5.744-5.656,10.783-9.429,15.141
					c1.213-5.355,2.745-10.566,4.958-15.463c0.979-1.746,1.861-3.471,2.638-5.107c0.354-0.748,0.485-1.479,0.445-2.162
					c0.014-0.625-0.117-1.287-0.445-1.963c-4.385-9.053-14.142-9.352-22.336-5.67c-6.826,3.064-12.959,9.143-15.524,16.307
					c-1.533,1.709-3.304,3.248-5.144,4.598c-0.972,0.713-2.041,1.447-3.149,1.977c1.817-6.65,8.738-10.82,7.36-18.566
					c-0.653-3.672-4.664-5.332-7.897-5.625c-4.054-0.367-8.055,2.797-10.888,5.264c-0.067,0.059-0.131,0.121-0.196,0.182
					c-1.076-3.449-3.619-6.008-8.142-4.945c-6.203,1.459-11.571,6.537-16.633,10.502c-0.021-0.104-0.041-0.205-0.064-0.307
					c0.178-0.824,0.113-1.73-0.307-2.662c-4.852-10.773-17.743-6.521-25.307-1.637c-8.799,5.68-18.416,15.174-20.681,25.795
					c-1.041,4.883,0.289,9.562,4.324,12.619c4.75,3.602,11.147,2.355,16.172,0.078c8.898-4.029,18.821-12.527,23.521-22.127
					c5.895-3.285,11.371-8.617,16.012-11.74c0.91-0.611,1.855-1.164,2.815-1.691c0.3-0.156,0.603-0.307,0.905-0.455
					c0.041,1.143-0.276,2.256-0.565,3.35c-1.428,5.428-4.558,10.992-8.142,15.291c-3.352,4.018,2.4,9.832,5.779,5.779
					c0.354-0.422,0.699-0.854,1.042-1.291c0.055-0.047,0.11-0.088,0.165-0.139c6.107-5.721,8.379-14.244,14.363-20.154
					c1.279-1.264,2.799-2.547,4.48-3.234c0.29-0.119,0.848-0.328,1.282-0.309c-0.011,0.059-0.021,0.115-0.038,0.195
					c-0.688,3.143-3.244,5.85-4.82,8.584c-1.942,3.369-3.875,7.436-2.555,11.369c1.159,3.451,4.436,4.959,7.88,4.443
					c2.886-0.432,5.828-2.002,8.482-3.992c0.946,1.969,2.364,3.727,4.04,5.045c4.207,3.313,9.052,3.07,13.73,0.951
					c1.488-0.674,2.914-1.551,4.287-2.563c-0.543,2.725-1.031,5.459-1.508,8.184c-3.992,2.797-8.439,5.119-13.369,6.961
					c-11.656,4.354-24.598,6.248-35.062,13.355c-10.792,7.331-20.682,24.484-10.059,35.889c10.896,11.697,32.372,5.17,43.34-2.82
					c16.098-11.727,19.069-29.879,22.159-48.09c6.013-4.596,10.979-10.354,14.902-16.855c2.957,3.525,7.858,4.992,12.741,3.574
					c6.289-1.824,11.513-7.123,15.512-12.232c4.566,0.934,9.486,0.834,13.738,0.48c7.269-0.604,13.725-3.023,19.248-7.016
					c-0.896,3.616-1.514,7.572-1.26,11.151c0.135,1.894,1.566,3.387,3.365,3.669c0.295,0.046,0.598,0.06,0.907,0.037
					c2.204-0.156,3.863-2.068,3.707-4.272c-0.458-6.46,3.249-16.047,4.716-19.194L317.422,188.805z M127.653,225.81
					c-3.089,1.764-8.861,3.977-10.867,0.766c-0.428-0.682-0.493-1.854-0.31-2.895c0.366-2.07,1.272-3.943,2.298-5.758
					c2.521-4.457,6.123-8.25,9.949-11.607c0.919-0.807,1.884-1.59,2.885-2.336c-0.24,4.314,1.982,8.486,7.376,10.291
					c0.6,0.201,1.198,0.346,1.796,0.455C137.149,219.162,132.564,223.003,127.653,225.81z M146.471,205.763
					c-3.092,1.406-6.203,1.926-7.02-1.111c-0.631-2.348,4.29-6.193,6.386-4.955C147.786,200.849,147.479,203.294,146.471,205.763z
					 M204.497,272.876c-5.279,5.479-12.431,8.748-19.78,10.358c-6.179,1.355-15.233,1.063-18.665-5.223
					c-3.162-5.789,2.526-14.043,6.447-18.033c3.962-4.033,9.274-6.475,14.519-8.373c10.438-3.778,21.278-6.078,31.275-11.035
					C216.047,252.21,212.872,264.182,204.497,272.876z M228.018,200.916c-2.797,4.848-6.252,9.369-10.336,13.131
					c-1.885,1.736-4.824,4.07-7.572,3.43c-2.364-0.553-3.5-3.262-3.455-5.43c0.173-8.043,16.062-20.803,22.541-13.51
					C228.783,199.322,228.391,200.115,228.018,200.916z M247.757,211.703c-1.522-4.393,2.661-9.758,5.339-12.768
					c0.985-1.105,2.18-2.336,3.508-3.471c0.058,3.518,1.465,7.068,4.136,9.484c0.512,0.463,1.059,0.875,1.618,1.264
					C257.505,211.689,249.928,217.966,247.757,211.703z M268.426,194.791c-0.283,1.615-0.789,3.201-1.438,4.713
					c-1.232-0.818-2.209-1.967-2.356-3.488c-0.182-1.867,1.49-5.039,3.667-4.273c-0.002,0.063,0.208,0.334,0.305,0.777
					C268.742,193.162,268.541,194.134,268.426,194.791z"/>
			</g>
		</g>
	</g>
	<g>
		<polygon fill="#F5F5F5" points="277.413,333.443 72.588,333.443 72.588,402.96 161.12,402.96 175.269,427.058 188.948,402.96 
			277.413,402.96 		"/>
		<g>
			<path fill="#FF2E00" d="M116.17,365.05c-0.477-2.187-2.285-3.438-4.351-3.438c-3.755,0-5.344,3.141-5.344,6.238
				c0,3.101,1.589,6.238,5.344,6.238c2.623,0,4.291-2.025,4.549-4.55h1.351c-0.377,3.478-2.583,5.702-5.9,5.702
				c-4.47,0-6.695-3.518-6.695-7.391c0-3.875,2.225-7.392,6.695-7.392c2.682,0,5.344,1.608,5.702,4.59h-1.351V365.05z"/>
			<path fill="#FF2E00" d="M129.22,369.816c0,2.94-1.708,5.425-4.848,5.425s-4.848-2.483-4.848-5.425
				c0-2.94,1.708-5.424,4.848-5.424S129.22,366.877,129.22,369.816z M120.776,369.816c0,2.187,1.192,4.371,3.596,4.371
				c2.404,0,3.596-2.186,3.596-4.371c0-2.185-1.192-4.369-3.596-4.369C121.968,365.447,120.776,367.633,120.776,369.816z"/>
			<path fill="#FF2E00" d="M131.581,364.691h1.152v1.729h0.06c0.656-1.231,1.729-2.026,3.357-2.026c1.351,0,2.563,0.655,2.94,2.006
				c0.616-1.351,1.907-2.006,3.258-2.006c2.245,0,3.397,1.172,3.397,3.597v6.952h-1.251v-6.894c0-1.688-0.636-2.603-2.424-2.603
				c-2.166,0-2.781,1.787-2.781,3.695v5.801h-1.251v-6.953c0.02-1.391-0.557-2.543-2.146-2.543c-2.165,0-3.04,1.629-3.059,3.773
				v5.723h-1.252V364.691L131.581,364.691z"/>
			<path fill="#FF2E00" d="M148.643,360.759h1.251v2.007h-1.251V360.759z M148.643,364.691h1.251v10.252h-1.251V364.691z"/>
			<path fill="#FF2E00" d="M152.775,364.691h1.251v1.769h0.04c0.457-1.231,1.828-2.065,3.278-2.065c2.88,0,3.755,1.51,3.755,3.953
				v6.596h-1.252v-6.396c0-1.768-0.576-3.099-2.603-3.099c-1.986,0-3.179,1.51-3.218,3.517v5.979h-1.251V364.691z"/>
			<path fill="#FF2E00" d="M172.619,374.109c-0.02,3.059-1.192,4.927-4.549,4.927c-2.046,0-4.073-0.914-4.252-3.101h1.252
				c0.278,1.51,1.609,2.047,3,2.047c2.304,0,3.298-1.371,3.298-3.873v-1.392h-0.04c-0.576,1.251-1.788,2.105-3.258,2.105
				c-3.278,0-4.629-2.345-4.629-5.265c0-2.822,1.669-5.166,4.629-5.166c1.49,0,2.761,0.935,3.258,2.065h0.04v-1.769h1.251V374.109
				L172.619,374.109z M171.368,369.698c0-2.007-0.934-4.251-3.298-4.251c-2.384,0-3.377,2.125-3.377,4.251
				c0,2.065,1.073,4.073,3.377,4.073C170.235,373.771,171.368,371.784,171.368,369.698z"/>
			<path fill="#FF2E00" d="M182.391,370.273c-0.061,2.922,2.045,3.814,4.629,3.814c1.489,0,3.754-0.814,3.754-2.881
				c0-1.607-1.608-2.244-2.92-2.563l-3.158-0.774c-1.668-0.418-3.198-1.212-3.198-3.418c0-1.392,0.894-3.993,4.887-3.993
				c2.802,0,5.265,1.511,5.245,4.411h-1.352c-0.078-2.166-1.866-3.259-3.873-3.259c-1.848,0-3.557,0.716-3.557,2.82
				c0,1.332,0.994,1.889,2.146,2.166l3.457,0.854c2.007,0.536,3.675,1.411,3.675,3.735c0,0.974-0.397,4.053-5.423,4.053
				c-3.357,0-5.821-1.51-5.662-4.967H182.391L182.391,370.273z"/>
			<path fill="#FF2E00" d="M203.704,369.816c0,2.94-1.708,5.425-4.849,5.425c-3.14,0-4.848-2.483-4.848-5.425
				c0-2.94,1.708-5.424,4.848-5.424C201.996,364.393,203.704,366.877,203.704,369.816z M195.262,369.816
				c0,2.187,1.191,4.371,3.596,4.371c2.403,0,3.596-2.186,3.596-4.371c0-2.185-1.192-4.369-3.596-4.369
				C196.453,365.447,195.262,367.633,195.262,369.816z"/>
			<path fill="#FF2E00" d="M215.245,369.816c0,2.94-1.708,5.425-4.849,5.425c-3.139,0-4.848-2.483-4.848-5.425
				c0-2.94,1.709-5.424,4.848-5.424C213.536,364.395,215.245,366.877,215.245,369.816z M206.801,369.816
				c0,2.187,1.192,4.371,3.596,4.371c2.404,0,3.597-2.186,3.597-4.371c0-2.185-1.192-4.369-3.597-4.369
				C207.993,365.447,206.801,367.633,206.801,369.816z"/>
			<path fill="#FF2E00" d="M217.586,364.691h1.251v1.769h0.04c0.457-1.231,1.828-2.065,3.277-2.065c2.881,0,3.756,1.51,3.756,3.953
				v6.596h-1.252v-6.396c0-1.768-0.576-3.099-2.604-3.099c-1.986,0-3.179,1.51-3.218,3.517v5.979h-1.251V364.691z"/>
			<path fill="#FF2E00" d="M229.504,374.943v-2.105h1.668v2.105H229.504z"/>
			<path fill="#FF2E00" d="M235.521,374.943v-2.105h1.668v2.105H235.521z"/>
			<path fill="#FF2E00" d="M241.541,374.943v-2.105h1.668v2.105H241.541z"/>
		</g>
	</g>
</g>
</svg>
